<svg width="824" height="147" viewBox="0 0 824 147" fill="none" xmlns="http://www.w3.org/2000/svg">
<path d="M363.895 32.4C366.871 32.4 369.447 32.896 371.623 33.888C373.831 34.88 375.527 36.288 376.711 38.112C377.895 39.936 378.487 42.096 378.487 44.592C378.487 47.056 377.895 49.216 376.711 51.072C375.527 52.896 373.831 54.304 371.623 55.296C369.447 56.256 366.871 56.736 363.895 56.736H357.127V66H349.351V32.4H363.895ZM363.463 50.4C365.799 50.4 367.575 49.904 368.791 48.912C370.007 47.888 370.615 46.448 370.615 44.592C370.615 42.704 370.007 41.264 368.791 40.272C367.575 39.248 365.799 38.736 363.463 38.736H357.127V50.4H363.463ZM383.979 30.384H391.467V66H383.979V30.384ZM408.833 39.792C412.833 39.792 415.905 40.752 418.049 42.672C420.193 44.56 421.265 47.424 421.265 51.264V66H414.257V62.784C412.849 65.184 410.225 66.384 406.385 66.384C404.401 66.384 402.673 66.048 401.201 65.376C399.761 64.704 398.657 63.776 397.889 62.592C397.121 61.408 396.737 60.064 396.737 58.56C396.737 56.16 397.633 54.272 399.425 52.896C401.249 51.52 404.049 50.832 407.825 50.832H413.777C413.777 49.2 413.281 47.952 412.289 47.088C411.297 46.192 409.809 45.744 407.825 45.744C406.449 45.744 405.089 45.968 403.745 46.416C402.433 46.832 401.313 47.408 400.385 48.144L397.697 42.912C399.105 41.92 400.785 41.152 402.737 40.608C404.721 40.064 406.753 39.792 408.833 39.792ZM408.257 61.344C409.537 61.344 410.673 61.056 411.665 60.48C412.657 59.872 413.361 58.992 413.777 57.84V55.2H408.641C405.569 55.2 404.033 56.208 404.033 58.224C404.033 59.184 404.401 59.952 405.137 60.528C405.905 61.072 406.945 61.344 408.257 61.344ZM443.738 39.792C446.938 39.792 449.514 40.752 451.466 42.672C453.45 44.592 454.442 47.44 454.442 51.216V66H446.954V52.368C446.954 50.32 446.506 48.8 445.61 47.808C444.714 46.784 443.418 46.272 441.722 46.272C439.834 46.272 438.33 46.864 437.21 48.048C436.09 49.2 435.53 50.928 435.53 53.232V66H428.042V40.176H435.194V43.2C436.186 42.112 437.418 41.28 438.89 40.704C440.362 40.096 441.978 39.792 443.738 39.792ZM477.885 64.752C477.149 65.296 476.237 65.712 475.149 66C474.093 66.256 472.973 66.384 471.789 66.384C468.717 66.384 466.333 65.6 464.637 64.032C462.973 62.464 462.141 60.16 462.141 57.12V46.512H458.157V40.752H462.141V34.464H469.629V40.752H476.061V46.512H469.629V57.024C469.629 58.112 469.901 58.96 470.445 59.568C471.021 60.144 471.821 60.432 472.845 60.432C474.029 60.432 475.037 60.112 475.869 59.472L477.885 64.752ZM383.571 98.576C380.915 98.576 378.339 98.224 375.843 97.52C373.379 96.784 371.395 95.84 369.891 94.688L372.531 88.832C373.971 89.888 375.683 90.736 377.667 91.376C379.651 92.016 381.635 92.336 383.619 92.336C385.827 92.336 387.459 92.016 388.515 91.376C389.571 90.704 390.099 89.824 390.099 88.736C390.099 87.936 389.779 87.28 389.139 86.768C388.531 86.224 387.731 85.792 386.739 85.472C385.779 85.152 384.467 84.8 382.803 84.416C380.243 83.808 378.147 83.2 376.515 82.592C374.883 81.984 373.475 81.008 372.291 79.664C371.139 78.32 370.563 76.528 370.563 74.288C370.563 72.336 371.091 70.576 372.147 69.008C373.203 67.408 374.787 66.144 376.899 65.216C379.043 64.288 381.651 63.824 384.723 63.824C386.867 63.824 388.963 64.08 391.011 64.592C393.059 65.104 394.851 65.84 396.387 66.8L393.987 72.704C390.883 70.944 387.779 70.064 384.675 70.064C382.499 70.064 380.883 70.416 379.827 71.12C378.803 71.824 378.291 72.752 378.291 73.904C378.291 75.056 378.883 75.92 380.067 76.496C381.283 77.04 383.123 77.584 385.587 78.128C388.147 78.736 390.243 79.344 391.875 79.952C393.507 80.56 394.899 81.52 396.051 82.832C397.235 84.144 397.827 85.92 397.827 88.16C397.827 90.08 397.283 91.84 396.195 93.44C395.139 95.008 393.539 96.256 391.395 97.184C389.251 98.112 386.643 98.576 383.571 98.576ZM443.616 72.176L434.256 98H427.056L421.248 81.968L415.248 98H408.048L398.736 72.176H405.792L411.888 89.648L418.224 72.176H424.56L430.704 89.648L436.992 72.176H443.616Z" fill="#5DAB63"/>
<path d="M457.225 72.56C460.521 72.56 463.049 73.392 464.809 75.056C466.569 76.688 467.449 79.12 467.449 82.352V98H464.185V94.064C463.417 95.376 462.281 96.4 460.777 97.136C459.305 97.872 457.545 98.24 455.497 98.24C452.681 98.24 450.441 97.568 448.777 96.224C447.113 94.88 446.281 93.104 446.281 90.896C446.281 88.752 447.049 87.024 448.585 85.712C450.153 84.4 452.633 83.744 456.025 83.744H464.041V82.208C464.041 80.032 463.433 78.384 462.217 77.264C461.001 76.112 459.225 75.536 456.889 75.536C455.289 75.536 453.753 75.808 452.281 76.352C450.809 76.864 449.545 77.584 448.489 78.512L446.953 75.968C448.233 74.88 449.769 74.048 451.561 73.472C453.353 72.864 455.241 72.56 457.225 72.56ZM456.025 95.552C457.945 95.552 459.593 95.12 460.969 94.256C462.345 93.36 463.369 92.08 464.041 90.416V86.288H456.121C451.801 86.288 449.641 87.792 449.641 90.8C449.641 92.272 450.201 93.44 451.321 94.304C452.441 95.136 454.009 95.552 456.025 95.552ZM489.713 72.56C492.081 72.56 494.225 73.104 496.145 74.192C498.065 75.248 499.569 76.752 500.657 78.704C501.745 80.656 502.289 82.88 502.289 85.376C502.289 87.904 501.745 90.144 500.657 92.096C499.569 94.048 498.065 95.568 496.145 96.656C494.257 97.712 492.113 98.24 489.713 98.24C487.665 98.24 485.809 97.824 484.145 96.992C482.513 96.128 481.169 94.88 480.113 93.248V107.312H476.705V72.752H479.969V77.744C480.993 76.08 482.337 74.8 484.001 73.904C485.697 73.008 487.601 72.56 489.713 72.56ZM489.473 95.216C491.233 95.216 492.833 94.816 494.273 94.016C495.713 93.184 496.833 92.016 497.633 90.512C498.465 89.008 498.881 87.296 498.881 85.376C498.881 83.456 498.465 81.76 497.633 80.288C496.833 78.784 495.713 77.616 494.273 76.784C492.833 75.952 491.233 75.536 489.473 75.536C487.681 75.536 486.065 75.952 484.625 76.784C483.217 77.616 482.097 78.784 481.265 80.288C480.465 81.76 480.065 83.456 480.065 85.376C480.065 87.296 480.465 89.008 481.265 90.512C482.097 92.016 483.217 93.184 484.625 94.016C486.065 94.816 487.681 95.216 489.473 95.216ZM522.244 72.56C524.612 72.56 526.756 73.104 528.676 74.192C530.596 75.248 532.1 76.752 533.188 78.704C534.276 80.656 534.82 82.88 534.82 85.376C534.82 87.904 534.276 90.144 533.188 92.096C532.1 94.048 530.596 95.568 528.676 96.656C526.788 97.712 524.644 98.24 522.244 98.24C520.196 98.24 518.34 97.824 516.676 96.992C515.044 96.128 513.7 94.88 512.644 93.248V107.312H509.236V72.752H512.5V77.744C513.524 76.08 514.868 74.8 516.532 73.904C518.228 73.008 520.132 72.56 522.244 72.56ZM522.004 95.216C523.764 95.216 525.364 94.816 526.804 94.016C528.244 93.184 529.364 92.016 530.164 90.512C530.996 89.008 531.412 87.296 531.412 85.376C531.412 83.456 530.996 81.76 530.164 80.288C529.364 78.784 528.244 77.616 526.804 76.784C525.364 75.952 523.764 75.536 522.004 75.536C520.212 75.536 518.596 75.952 517.156 76.784C515.748 77.616 514.628 78.784 513.796 80.288C512.996 81.76 512.596 83.456 512.596 85.376C512.596 87.296 512.996 89.008 513.796 90.512C514.628 92.016 515.748 93.184 517.156 94.016C518.596 94.816 520.212 95.216 522.004 95.216Z" fill="#FD823E"/>
<path d="M519.5 73.5C519.5 113.792 485.051 146.5 442.5 146.5C399.949 146.5 365.5 113.792 365.5 73.5C365.5 33.2078 399.949 0.5 442.5 0.5C485.051 0.5 519.5 33.2078 519.5 73.5Z" stroke="#DBDBDB"/>
</svg>
